<mxfile host="Electron" modified="2024-03-08T10:45:48.626Z" agent="Mozilla/5.0 (Windows NT 10.0; Win64; x64) AppleWebKit/537.36 (KHTML, like Gecko) draw.io/22.0.2 Chrome/114.0.5735.289 Electron/25.8.4 Safari/537.36" etag="ZlwBCaDgyT8z3RNREGqe" version="22.0.2" type="device">
  <diagram id="C5RBs43oDa-KdzZeNtuy" name="Page-1">
    <mxGraphModel dx="1761" dy="611" grid="1" gridSize="10" guides="1" tooltips="1" connect="1" arrows="1" fold="1" page="1" pageScale="1" pageWidth="827" pageHeight="1169" math="0" shadow="0">
      <root>
        <mxCell id="WIyWlLk6GJQsqaUBKTNV-0" />
        <mxCell id="WIyWlLk6GJQsqaUBKTNV-1" parent="WIyWlLk6GJQsqaUBKTNV-0" />
        <mxCell id="L_L1d5lK6xhlzq5mwbAg-33" style="edgeStyle=orthogonalEdgeStyle;rounded=0;orthogonalLoop=1;jettySize=auto;html=1;entryX=1;entryY=0.5;entryDx=0;entryDy=0;endArrow=none;endFill=0;" parent="WIyWlLk6GJQsqaUBKTNV-1" source="L_L1d5lK6xhlzq5mwbAg-37" target="L_L1d5lK6xhlzq5mwbAg-59" edge="1">
          <mxGeometry relative="1" as="geometry" />
        </mxCell>
        <mxCell id="L_L1d5lK6xhlzq5mwbAg-34" value="1,1" style="edgeLabel;html=1;align=center;verticalAlign=middle;resizable=0;points=[];" parent="L_L1d5lK6xhlzq5mwbAg-33" vertex="1" connectable="0">
          <mxGeometry x="0.1421" y="-3" relative="1" as="geometry">
            <mxPoint as="offset" />
          </mxGeometry>
        </mxCell>
        <mxCell id="L_L1d5lK6xhlzq5mwbAg-35" style="edgeStyle=orthogonalEdgeStyle;rounded=0;orthogonalLoop=1;jettySize=auto;html=1;endArrow=none;endFill=0;" parent="WIyWlLk6GJQsqaUBKTNV-1" source="L_L1d5lK6xhlzq5mwbAg-37" edge="1">
          <mxGeometry relative="1" as="geometry">
            <mxPoint x="280" y="260" as="targetPoint" />
          </mxGeometry>
        </mxCell>
        <mxCell id="L_L1d5lK6xhlzq5mwbAg-36" value="0, N" style="edgeLabel;html=1;align=center;verticalAlign=middle;resizable=0;points=[];" parent="L_L1d5lK6xhlzq5mwbAg-35" vertex="1" connectable="0">
          <mxGeometry x="-0.2213" y="4" relative="1" as="geometry">
            <mxPoint as="offset" />
          </mxGeometry>
        </mxCell>
        <mxCell id="L_L1d5lK6xhlzq5mwbAg-37" value="ACCOUNT" style="swimlane;fontStyle=0;childLayout=stackLayout;horizontal=1;startSize=26;horizontalStack=0;resizeParent=1;resizeParentMax=0;resizeLast=0;collapsible=1;marginBottom=0;align=center;fontSize=14;" parent="WIyWlLk6GJQsqaUBKTNV-1" vertex="1">
          <mxGeometry x="180" y="64" width="200" height="146" as="geometry" />
        </mxCell>
        <mxCell id="L_L1d5lK6xhlzq5mwbAg-38" value="&lt;b&gt;&lt;u&gt;login&lt;/u&gt;&lt;/b&gt;" style="text;strokeColor=none;fillColor=none;spacingLeft=4;spacingRight=4;overflow=hidden;rotatable=0;points=[[0,0.5],[1,0.5]];portConstraint=eastwest;fontSize=12;whiteSpace=wrap;html=1;" parent="L_L1d5lK6xhlzq5mwbAg-37" vertex="1">
          <mxGeometry y="26" width="200" height="30" as="geometry" />
        </mxCell>
        <mxCell id="L_L1d5lK6xhlzq5mwbAg-39" value="password" style="text;strokeColor=none;fillColor=none;spacingLeft=4;spacingRight=4;overflow=hidden;rotatable=0;points=[[0,0.5],[1,0.5]];portConstraint=eastwest;fontSize=12;whiteSpace=wrap;html=1;" parent="L_L1d5lK6xhlzq5mwbAg-37" vertex="1">
          <mxGeometry y="56" width="200" height="30" as="geometry" />
        </mxCell>
        <mxCell id="L_L1d5lK6xhlzq5mwbAg-40" value="rank" style="text;strokeColor=none;fillColor=none;spacingLeft=4;spacingRight=4;overflow=hidden;rotatable=0;points=[[0,0.5],[1,0.5]];portConstraint=eastwest;fontSize=12;whiteSpace=wrap;html=1;" parent="L_L1d5lK6xhlzq5mwbAg-37" vertex="1">
          <mxGeometry y="86" width="200" height="30" as="geometry" />
        </mxCell>
        <mxCell id="L_L1d5lK6xhlzq5mwbAg-41" value="picture" style="text;strokeColor=none;fillColor=none;spacingLeft=4;spacingRight=4;overflow=hidden;rotatable=0;points=[[0,0.5],[1,0.5]];portConstraint=eastwest;fontSize=12;whiteSpace=wrap;html=1;" parent="L_L1d5lK6xhlzq5mwbAg-37" vertex="1">
          <mxGeometry y="116" width="200" height="30" as="geometry" />
        </mxCell>
        <mxCell id="L_L1d5lK6xhlzq5mwbAg-42" style="edgeStyle=orthogonalEdgeStyle;rounded=0;orthogonalLoop=1;jettySize=auto;html=1;entryX=0;entryY=0.5;entryDx=0;entryDy=0;endArrow=none;endFill=0;" parent="WIyWlLk6GJQsqaUBKTNV-1" source="L_L1d5lK6xhlzq5mwbAg-44" target="L_L1d5lK6xhlzq5mwbAg-59" edge="1">
          <mxGeometry relative="1" as="geometry" />
        </mxCell>
        <mxCell id="L_L1d5lK6xhlzq5mwbAg-43" value="0, N" style="edgeLabel;html=1;align=center;verticalAlign=middle;resizable=0;points=[];" parent="L_L1d5lK6xhlzq5mwbAg-42" vertex="1" connectable="0">
          <mxGeometry x="-0.1674" y="1" relative="1" as="geometry">
            <mxPoint as="offset" />
          </mxGeometry>
        </mxCell>
        <mxCell id="L_L1d5lK6xhlzq5mwbAg-44" value="RANK" style="swimlane;fontStyle=0;childLayout=stackLayout;horizontal=1;startSize=26;horizontalStack=0;resizeParent=1;resizeParentMax=0;resizeLast=0;collapsible=1;marginBottom=0;align=center;fontSize=14;" parent="WIyWlLk6GJQsqaUBKTNV-1" vertex="1">
          <mxGeometry x="-340" y="94" width="200" height="56" as="geometry" />
        </mxCell>
        <mxCell id="L_L1d5lK6xhlzq5mwbAg-45" value="&lt;b&gt;&lt;u&gt;rank&lt;/u&gt;&lt;/b&gt;" style="text;strokeColor=none;fillColor=none;spacingLeft=4;spacingRight=4;overflow=hidden;rotatable=0;points=[[0,0.5],[1,0.5]];portConstraint=eastwest;fontSize=12;whiteSpace=wrap;html=1;" parent="L_L1d5lK6xhlzq5mwbAg-44" vertex="1">
          <mxGeometry y="26" width="200" height="30" as="geometry" />
        </mxCell>
        <mxCell id="L_L1d5lK6xhlzq5mwbAg-46" style="edgeStyle=orthogonalEdgeStyle;rounded=0;orthogonalLoop=1;jettySize=auto;html=1;endArrow=none;endFill=0;" parent="WIyWlLk6GJQsqaUBKTNV-1" source="L_L1d5lK6xhlzq5mwbAg-50" edge="1">
          <mxGeometry relative="1" as="geometry">
            <mxPoint x="280" y="323.0000000000001" as="targetPoint" />
          </mxGeometry>
        </mxCell>
        <mxCell id="L_L1d5lK6xhlzq5mwbAg-47" value="0,N" style="edgeLabel;html=1;align=center;verticalAlign=middle;resizable=0;points=[];" parent="L_L1d5lK6xhlzq5mwbAg-46" vertex="1" connectable="0">
          <mxGeometry x="0.1246" y="1" relative="1" as="geometry">
            <mxPoint as="offset" />
          </mxGeometry>
        </mxCell>
        <mxCell id="L_L1d5lK6xhlzq5mwbAg-48" style="edgeStyle=orthogonalEdgeStyle;rounded=0;orthogonalLoop=1;jettySize=auto;html=1;entryX=1;entryY=0.5;entryDx=0;entryDy=0;endArrow=none;endFill=0;" parent="WIyWlLk6GJQsqaUBKTNV-1" source="L_L1d5lK6xhlzq5mwbAg-50" target="L_L1d5lK6xhlzq5mwbAg-64" edge="1">
          <mxGeometry relative="1" as="geometry" />
        </mxCell>
        <mxCell id="L_L1d5lK6xhlzq5mwbAg-49" value="1,1" style="edgeLabel;html=1;align=center;verticalAlign=middle;resizable=0;points=[];" parent="L_L1d5lK6xhlzq5mwbAg-48" vertex="1" connectable="0">
          <mxGeometry x="0.4837" y="4" relative="1" as="geometry">
            <mxPoint as="offset" />
          </mxGeometry>
        </mxCell>
        <mxCell id="z3tirdCvR7az3a3g2ln4-16" style="edgeStyle=orthogonalEdgeStyle;rounded=0;orthogonalLoop=1;jettySize=auto;html=1;endArrow=none;endFill=0;" edge="1" parent="WIyWlLk6GJQsqaUBKTNV-1" source="L_L1d5lK6xhlzq5mwbAg-50" target="z3tirdCvR7az3a3g2ln4-12">
          <mxGeometry relative="1" as="geometry" />
        </mxCell>
        <mxCell id="z3tirdCvR7az3a3g2ln4-20" value="0,n" style="edgeLabel;html=1;align=center;verticalAlign=middle;resizable=0;points=[];" vertex="1" connectable="0" parent="z3tirdCvR7az3a3g2ln4-16">
          <mxGeometry x="-0.0056" y="-3" relative="1" as="geometry">
            <mxPoint as="offset" />
          </mxGeometry>
        </mxCell>
        <mxCell id="L_L1d5lK6xhlzq5mwbAg-50" value="SLOPE" style="swimlane;fontStyle=0;childLayout=stackLayout;horizontal=1;startSize=26;horizontalStack=0;resizeParent=1;resizeParentMax=0;resizeLast=0;collapsible=1;marginBottom=0;align=center;fontSize=14;" parent="WIyWlLk6GJQsqaUBKTNV-1" vertex="1">
          <mxGeometry x="180" y="400" width="200" height="146" as="geometry" />
        </mxCell>
        <mxCell id="L_L1d5lK6xhlzq5mwbAg-51" value="&lt;b&gt;&lt;u&gt;id&lt;/u&gt;&lt;/b&gt;" style="text;strokeColor=none;fillColor=none;spacingLeft=4;spacingRight=4;overflow=hidden;rotatable=0;points=[[0,0.5],[1,0.5]];portConstraint=eastwest;fontSize=12;whiteSpace=wrap;html=1;" parent="L_L1d5lK6xhlzq5mwbAg-50" vertex="1">
          <mxGeometry y="26" width="200" height="30" as="geometry" />
        </mxCell>
        <mxCell id="L_L1d5lK6xhlzq5mwbAg-52" value="name" style="text;strokeColor=none;fillColor=none;spacingLeft=4;spacingRight=4;overflow=hidden;rotatable=0;points=[[0,0.5],[1,0.5]];portConstraint=eastwest;fontSize=12;whiteSpace=wrap;html=1;" parent="L_L1d5lK6xhlzq5mwbAg-50" vertex="1">
          <mxGeometry y="56" width="200" height="30" as="geometry" />
        </mxCell>
        <mxCell id="L_L1d5lK6xhlzq5mwbAg-53" value="color" style="text;strokeColor=none;fillColor=none;spacingLeft=4;spacingRight=4;overflow=hidden;rotatable=0;points=[[0,0.5],[1,0.5]];portConstraint=eastwest;fontSize=12;whiteSpace=wrap;html=1;" parent="L_L1d5lK6xhlzq5mwbAg-50" vertex="1">
          <mxGeometry y="86" width="200" height="30" as="geometry" />
        </mxCell>
        <mxCell id="L_L1d5lK6xhlzq5mwbAg-54" value="picture" style="text;strokeColor=none;fillColor=none;spacingLeft=4;spacingRight=4;overflow=hidden;rotatable=0;points=[[0,0.5],[1,0.5]];portConstraint=eastwest;fontSize=12;whiteSpace=wrap;html=1;" parent="L_L1d5lK6xhlzq5mwbAg-50" vertex="1">
          <mxGeometry y="116" width="200" height="30" as="geometry" />
        </mxCell>
        <mxCell id="L_L1d5lK6xhlzq5mwbAg-55" style="edgeStyle=orthogonalEdgeStyle;rounded=0;orthogonalLoop=1;jettySize=auto;html=1;endArrow=none;endFill=0;" parent="WIyWlLk6GJQsqaUBKTNV-1" source="L_L1d5lK6xhlzq5mwbAg-57" target="L_L1d5lK6xhlzq5mwbAg-64" edge="1">
          <mxGeometry relative="1" as="geometry" />
        </mxCell>
        <mxCell id="L_L1d5lK6xhlzq5mwbAg-56" value="0,N" style="edgeLabel;html=1;align=center;verticalAlign=middle;resizable=0;points=[];" parent="L_L1d5lK6xhlzq5mwbAg-55" vertex="1" connectable="0">
          <mxGeometry x="-0.0315" y="2" relative="1" as="geometry">
            <mxPoint as="offset" />
          </mxGeometry>
        </mxCell>
        <mxCell id="L_L1d5lK6xhlzq5mwbAg-57" value="COLOR" style="swimlane;fontStyle=0;childLayout=stackLayout;horizontal=1;startSize=26;horizontalStack=0;resizeParent=1;resizeParentMax=0;resizeLast=0;collapsible=1;marginBottom=0;align=center;fontSize=14;" parent="WIyWlLk6GJQsqaUBKTNV-1" vertex="1">
          <mxGeometry x="-330" y="445" width="200" height="56" as="geometry" />
        </mxCell>
        <mxCell id="L_L1d5lK6xhlzq5mwbAg-58" value="&lt;b&gt;&lt;u&gt;color&lt;/u&gt;&lt;/b&gt;" style="text;strokeColor=none;fillColor=none;spacingLeft=4;spacingRight=4;overflow=hidden;rotatable=0;points=[[0,0.5],[1,0.5]];portConstraint=eastwest;fontSize=12;whiteSpace=wrap;html=1;" parent="L_L1d5lK6xhlzq5mwbAg-57" vertex="1">
          <mxGeometry y="26" width="200" height="30" as="geometry" />
        </mxCell>
        <mxCell id="L_L1d5lK6xhlzq5mwbAg-59" value="A pour" style="fontStyle=1;whiteSpace=wrap;html=1;rounded=1;" parent="WIyWlLk6GJQsqaUBKTNV-1" vertex="1">
          <mxGeometry x="-50" y="90.5" width="140" height="63" as="geometry" />
        </mxCell>
        <mxCell id="L_L1d5lK6xhlzq5mwbAg-60" value="" style="fontStyle=1;whiteSpace=wrap;html=1;rounded=1;" parent="WIyWlLk6GJQsqaUBKTNV-1" vertex="1">
          <mxGeometry x="211.47000000000003" y="250" width="140" height="80" as="geometry" />
        </mxCell>
        <mxCell id="L_L1d5lK6xhlzq5mwbAg-61" value="" style="endArrow=none;html=1;rounded=0;exitX=-0.021;exitY=0.374;exitDx=0;exitDy=0;exitPerimeter=0;" parent="WIyWlLk6GJQsqaUBKTNV-1" source="L_L1d5lK6xhlzq5mwbAg-60" edge="1">
          <mxGeometry width="50" height="50" relative="1" as="geometry">
            <mxPoint x="181.47000000000003" y="330" as="sourcePoint" />
            <mxPoint x="351.47" y="280" as="targetPoint" />
          </mxGeometry>
        </mxCell>
        <mxCell id="L_L1d5lK6xhlzq5mwbAg-62" value="CONCOURE" style="text;html=1;strokeColor=none;fillColor=none;align=center;verticalAlign=middle;whiteSpace=wrap;rounded=0;" parent="WIyWlLk6GJQsqaUBKTNV-1" vertex="1">
          <mxGeometry x="251" y="250" width="60" height="30" as="geometry" />
        </mxCell>
        <mxCell id="L_L1d5lK6xhlzq5mwbAg-63" value="time" style="text;html=1;strokeColor=none;fillColor=none;align=center;verticalAlign=middle;whiteSpace=wrap;rounded=0;" parent="WIyWlLk6GJQsqaUBKTNV-1" vertex="1">
          <mxGeometry x="200" y="280" width="60" height="30" as="geometry" />
        </mxCell>
        <mxCell id="L_L1d5lK6xhlzq5mwbAg-64" value="A pour" style="fontStyle=1;whiteSpace=wrap;html=1;rounded=1;" parent="WIyWlLk6GJQsqaUBKTNV-1" vertex="1">
          <mxGeometry x="-50" y="441.5" width="140" height="63" as="geometry" />
        </mxCell>
        <mxCell id="L_L1d5lK6xhlzq5mwbAg-65" value="date" style="text;html=1;strokeColor=none;fillColor=none;align=center;verticalAlign=middle;whiteSpace=wrap;rounded=0;" parent="WIyWlLk6GJQsqaUBKTNV-1" vertex="1">
          <mxGeometry x="200" y="300" width="60" height="30" as="geometry" />
        </mxCell>
        <mxCell id="z3tirdCvR7az3a3g2ln4-3" style="edgeStyle=orthogonalEdgeStyle;rounded=0;orthogonalLoop=1;jettySize=auto;html=1;entryX=1;entryY=0.5;entryDx=0;entryDy=0;endArrow=none;endFill=0;" edge="1" parent="WIyWlLk6GJQsqaUBKTNV-1" source="z3tirdCvR7az3a3g2ln4-1" target="L_L1d5lK6xhlzq5mwbAg-39">
          <mxGeometry relative="1" as="geometry" />
        </mxCell>
        <mxCell id="z3tirdCvR7az3a3g2ln4-5" value="0,n" style="edgeLabel;html=1;align=center;verticalAlign=middle;resizable=0;points=[];" vertex="1" connectable="0" parent="z3tirdCvR7az3a3g2ln4-3">
          <mxGeometry x="-0.0542" y="1" relative="1" as="geometry">
            <mxPoint as="offset" />
          </mxGeometry>
        </mxCell>
        <mxCell id="z3tirdCvR7az3a3g2ln4-1" value="Effectue" style="fontStyle=1;whiteSpace=wrap;html=1;rounded=1;" vertex="1" parent="WIyWlLk6GJQsqaUBKTNV-1">
          <mxGeometry x="500" y="103.5" width="140" height="63" as="geometry" />
        </mxCell>
        <mxCell id="z3tirdCvR7az3a3g2ln4-15" style="edgeStyle=orthogonalEdgeStyle;rounded=0;orthogonalLoop=1;jettySize=auto;html=1;endArrow=none;endFill=0;" edge="1" parent="WIyWlLk6GJQsqaUBKTNV-1" source="z3tirdCvR7az3a3g2ln4-7" target="z3tirdCvR7az3a3g2ln4-1">
          <mxGeometry relative="1" as="geometry" />
        </mxCell>
        <mxCell id="z3tirdCvR7az3a3g2ln4-22" value="0,1" style="edgeLabel;html=1;align=center;verticalAlign=middle;resizable=0;points=[];" vertex="1" connectable="0" parent="z3tirdCvR7az3a3g2ln4-15">
          <mxGeometry x="0.142" y="-3" relative="1" as="geometry">
            <mxPoint as="offset" />
          </mxGeometry>
        </mxCell>
        <mxCell id="z3tirdCvR7az3a3g2ln4-17" style="edgeStyle=orthogonalEdgeStyle;rounded=0;orthogonalLoop=1;jettySize=auto;html=1;endArrow=none;endFill=0;" edge="1" parent="WIyWlLk6GJQsqaUBKTNV-1" source="z3tirdCvR7az3a3g2ln4-7" target="z3tirdCvR7az3a3g2ln4-12">
          <mxGeometry relative="1" as="geometry" />
        </mxCell>
        <mxCell id="z3tirdCvR7az3a3g2ln4-21" value="0,1" style="edgeLabel;html=1;align=center;verticalAlign=middle;resizable=0;points=[];" vertex="1" connectable="0" parent="z3tirdCvR7az3a3g2ln4-17">
          <mxGeometry x="-0.4068" y="1" relative="1" as="geometry">
            <mxPoint as="offset" />
          </mxGeometry>
        </mxCell>
        <mxCell id="z3tirdCvR7az3a3g2ln4-7" value="REQUEST" style="swimlane;fontStyle=0;childLayout=stackLayout;horizontal=1;startSize=26;horizontalStack=0;resizeParent=1;resizeParentMax=0;resizeLast=0;collapsible=1;marginBottom=0;align=center;fontSize=14;" vertex="1" parent="WIyWlLk6GJQsqaUBKTNV-1">
          <mxGeometry x="470" y="242" width="200" height="116" as="geometry" />
        </mxCell>
        <mxCell id="z3tirdCvR7az3a3g2ln4-8" value="&lt;b&gt;&lt;u&gt;id&lt;/u&gt;&lt;/b&gt;" style="text;strokeColor=none;fillColor=none;spacingLeft=4;spacingRight=4;overflow=hidden;rotatable=0;points=[[0,0.5],[1,0.5]];portConstraint=eastwest;fontSize=12;whiteSpace=wrap;html=1;" vertex="1" parent="z3tirdCvR7az3a3g2ln4-7">
          <mxGeometry y="26" width="200" height="30" as="geometry" />
        </mxCell>
        <mxCell id="z3tirdCvR7az3a3g2ln4-19" value="date" style="text;strokeColor=none;fillColor=none;spacingLeft=4;spacingRight=4;overflow=hidden;rotatable=0;points=[[0,0.5],[1,0.5]];portConstraint=eastwest;fontSize=12;whiteSpace=wrap;html=1;" vertex="1" parent="z3tirdCvR7az3a3g2ln4-7">
          <mxGeometry y="56" width="200" height="30" as="geometry" />
        </mxCell>
        <mxCell id="z3tirdCvR7az3a3g2ln4-23" value="traité" style="text;strokeColor=none;fillColor=none;spacingLeft=4;spacingRight=4;overflow=hidden;rotatable=0;points=[[0,0.5],[1,0.5]];portConstraint=eastwest;fontSize=12;whiteSpace=wrap;html=1;" vertex="1" parent="z3tirdCvR7az3a3g2ln4-7">
          <mxGeometry y="86" width="200" height="30" as="geometry" />
        </mxCell>
        <mxCell id="z3tirdCvR7az3a3g2ln4-12" value="Se déroule" style="fontStyle=1;whiteSpace=wrap;html=1;rounded=1;" vertex="1" parent="WIyWlLk6GJQsqaUBKTNV-1">
          <mxGeometry x="500" y="441.5" width="140" height="63" as="geometry" />
        </mxCell>
        <mxCell id="z3tirdCvR7az3a3g2ln4-29" style="edgeStyle=orthogonalEdgeStyle;rounded=0;orthogonalLoop=1;jettySize=auto;html=1;entryX=0;entryY=0.5;entryDx=0;entryDy=0;endArrow=none;endFill=0;" edge="1" parent="WIyWlLk6GJQsqaUBKTNV-1" source="z3tirdCvR7az3a3g2ln4-25" target="L_L1d5lK6xhlzq5mwbAg-40">
          <mxGeometry relative="1" as="geometry" />
        </mxCell>
        <mxCell id="z3tirdCvR7az3a3g2ln4-31" value="0,n" style="edgeLabel;html=1;align=center;verticalAlign=middle;resizable=0;points=[];" vertex="1" connectable="0" parent="z3tirdCvR7az3a3g2ln4-29">
          <mxGeometry x="-0.4808" y="-3" relative="1" as="geometry">
            <mxPoint as="offset" />
          </mxGeometry>
        </mxCell>
        <mxCell id="z3tirdCvR7az3a3g2ln4-30" style="edgeStyle=orthogonalEdgeStyle;rounded=0;orthogonalLoop=1;jettySize=auto;html=1;entryX=0;entryY=0.5;entryDx=0;entryDy=0;endArrow=none;endFill=0;" edge="1" parent="WIyWlLk6GJQsqaUBKTNV-1" source="z3tirdCvR7az3a3g2ln4-25" target="L_L1d5lK6xhlzq5mwbAg-51">
          <mxGeometry relative="1" as="geometry">
            <Array as="points">
              <mxPoint x="80" y="410" />
              <mxPoint x="180" y="410" />
            </Array>
          </mxGeometry>
        </mxCell>
        <mxCell id="z3tirdCvR7az3a3g2ln4-32" value="0,n" style="edgeLabel;html=1;align=center;verticalAlign=middle;resizable=0;points=[];" vertex="1" connectable="0" parent="z3tirdCvR7az3a3g2ln4-30">
          <mxGeometry x="-0.5402" y="1" relative="1" as="geometry">
            <mxPoint as="offset" />
          </mxGeometry>
        </mxCell>
        <mxCell id="z3tirdCvR7az3a3g2ln4-25" value="responsable" style="fontStyle=1;whiteSpace=wrap;html=1;rounded=1;" vertex="1" parent="WIyWlLk6GJQsqaUBKTNV-1">
          <mxGeometry x="10" y="268.5" width="140" height="63" as="geometry" />
        </mxCell>
      </root>
    </mxGraphModel>
  </diagram>
</mxfile>
